<mxfile host="" modified="2020-06-17T09:47:30.065Z" agent="5.0 (Windows NT 10.0; Win64; x64) AppleWebKit/537.36 (KHTML, like Gecko) Code/1.46.0 Chrome/78.0.3904.130 Electron/7.3.1 Safari/537.36" etag="OUnpwTujzLSvdQIccCLX" version="13.1.3">
    <diagram id="6hGFLwfOUW9BJ-s0fimq" name="Page-1">
        <mxGraphModel dx="1278" dy="685" grid="1" gridSize="10" guides="1" tooltips="1" connect="1" arrows="1" fold="1" page="1" pageScale="1" pageWidth="827" pageHeight="1169" math="0" shadow="0">
            <root>
                <mxCell id="0"/>
                <mxCell id="1" parent="0"/>
                <mxCell id="2" value="Top画像" style="rounded=0;whiteSpace=wrap;html=1;" vertex="1" parent="1">
                    <mxGeometry x="20" y="40" width="780" height="400" as="geometry"/>
                </mxCell>
                <mxCell id="3" value="&lt;font style=&quot;font-size: 12px&quot;&gt;TOP link&lt;/font&gt;" style="rounded=0;whiteSpace=wrap;html=1;" vertex="1" parent="1">
                    <mxGeometry x="20" width="70" height="40" as="geometry"/>
                </mxCell>
                <mxCell id="4" value="logout" style="rounded=0;whiteSpace=wrap;html=1;" vertex="1" parent="1">
                    <mxGeometry x="730" width="70" height="40" as="geometry"/>
                </mxCell>
                <mxCell id="6" value="日付" style="rounded=0;whiteSpace=wrap;html=1;" vertex="1" parent="1">
                    <mxGeometry x="20" y="40" width="70" height="40" as="geometry"/>
                </mxCell>
                <mxCell id="7" value="家の温度/湿度/照度" style="rounded=0;whiteSpace=wrap;html=1;" vertex="1" parent="1">
                    <mxGeometry x="90" y="40" width="160" height="40" as="geometry"/>
                </mxCell>
                <mxCell id="9" value="To-do list" style="rounded=0;whiteSpace=wrap;html=1;" vertex="1" parent="1">
                    <mxGeometry x="20" y="440" width="190" height="280" as="geometry"/>
                </mxCell>
                <mxCell id="10" value="To-do list入力フォーム" style="rounded=0;whiteSpace=wrap;html=1;" vertex="1" parent="1">
                    <mxGeometry x="210" y="440" width="190" height="280" as="geometry"/>
                </mxCell>
                <mxCell id="11" value="天気" style="rounded=0;whiteSpace=wrap;html=1;" vertex="1" parent="1">
                    <mxGeometry x="400" y="440" width="400" height="150" as="geometry"/>
                </mxCell>
                <mxCell id="12" value="支出入力フォーム" style="rounded=0;whiteSpace=wrap;html=1;" vertex="1" parent="1">
                    <mxGeometry x="400" y="590" width="400" height="130" as="geometry"/>
                </mxCell>
                <mxCell id="13" value="日本経済新聞" style="rounded=0;whiteSpace=wrap;html=1;" vertex="1" parent="1">
                    <mxGeometry x="20" y="720" width="380" height="450" as="geometry"/>
                </mxCell>
                <mxCell id="15" value="日本産業新聞" style="rounded=0;whiteSpace=wrap;html=1;" vertex="1" parent="1">
                    <mxGeometry x="400" y="720" width="400" height="450" as="geometry"/>
                </mxCell>
                <mxCell id="16" value="ツイッタートレンド" style="rounded=0;whiteSpace=wrap;html=1;" vertex="1" parent="1">
                    <mxGeometry x="20" y="1170" width="380" height="450" as="geometry"/>
                </mxCell>
                <mxCell id="17" value="googleカレンダー" style="rounded=0;whiteSpace=wrap;html=1;" vertex="1" parent="1">
                    <mxGeometry x="400" y="1170" width="400" height="450" as="geometry"/>
                </mxCell>
                <mxCell id="18" value="今月の変動費(グラフ)&lt;br&gt;" style="rounded=0;whiteSpace=wrap;html=1;" vertex="1" parent="1">
                    <mxGeometry x="20" y="1620" width="380" height="450" as="geometry"/>
                </mxCell>
                <mxCell id="19" value="今年の残営業日" style="rounded=0;whiteSpace=wrap;html=1;" vertex="1" parent="1">
                    <mxGeometry x="230" y="2070" width="170" height="140" as="geometry"/>
                </mxCell>
                <mxCell id="20" value="残有給" style="rounded=0;whiteSpace=wrap;html=1;" vertex="1" parent="1">
                    <mxGeometry x="20" y="2070" width="210" height="140" as="geometry"/>
                </mxCell>
                <mxCell id="21" value="今月の残業時間" style="rounded=0;whiteSpace=wrap;html=1;" vertex="1" parent="1">
                    <mxGeometry x="400" y="2070" width="190" height="140" as="geometry"/>
                </mxCell>
                <mxCell id="22" value="預金残高" style="rounded=0;whiteSpace=wrap;html=1;" vertex="1" parent="1">
                    <mxGeometry x="400" y="1620" width="220" height="210" as="geometry"/>
                </mxCell>
                <mxCell id="23" value="預金残高入力フォーム" style="rounded=0;whiteSpace=wrap;html=1;" vertex="1" parent="1">
                    <mxGeometry x="620" y="1620" width="180" height="210" as="geometry"/>
                </mxCell>
                <mxCell id="28" value="今月の見込み給与" style="rounded=0;whiteSpace=wrap;html=1;" vertex="1" parent="1">
                    <mxGeometry x="590" y="2070" width="210" height="140" as="geometry"/>
                </mxCell>
                <mxCell id="29" value="直近の家計簿" style="rounded=0;whiteSpace=wrap;html=1;" vertex="1" parent="1">
                    <mxGeometry x="400" y="1830" width="400" height="240" as="geometry"/>
                </mxCell>
            </root>
        </mxGraphModel>
    </diagram>
</mxfile>